<svg width="45" height="45" viewBox="0 0 45 45" fill="none" xmlns="http://www.w3.org/2000/svg">
<rect x="0.681818" y="0.681818" width="43.6364" height="43.6364" rx="2.72727" fill="white" stroke="white" stroke-width="1.36364"/>
<path d="M25.0493 20.5184H21.1065C21.0345 20.0083 20.8874 19.5552 20.6654 19.1591C20.4433 18.757 20.1583 18.4149 19.8102 18.1328C19.4621 17.8508 19.06 17.6347 18.6039 17.4847C18.1538 17.3347 17.6647 17.2596 17.1366 17.2596C16.1824 17.2596 15.3512 17.4967 14.643 17.9708C13.9349 18.4389 13.3858 19.1231 12.9957 20.0233C12.6056 20.9175 12.4106 22.0037 12.4106 23.282C12.4106 24.5963 12.6056 25.7005 12.9957 26.5947C13.3918 27.4889 13.9439 28.164 14.652 28.6201C15.3602 29.0762 16.1794 29.3043 17.1096 29.3043C17.6317 29.3043 18.1148 29.2353 18.5589 29.0973C19.009 28.9592 19.4081 28.7582 19.7562 28.4941C20.1042 28.2241 20.3923 27.897 20.6204 27.5129C20.8544 27.1288 21.0164 26.6907 21.1065 26.1986L25.0493 26.2166C24.9473 27.0628 24.6923 27.879 24.2842 28.6652C23.8821 29.4453 23.339 30.1445 22.6548 30.7626C21.9767 31.3748 21.1665 31.8609 20.2243 32.2209C19.2881 32.575 18.2288 32.7521 17.0466 32.7521C15.4022 32.7521 13.9319 32.38 12.6356 31.6358C11.3453 30.8916 10.3251 29.8144 9.57493 28.4041C8.83077 26.9938 8.45869 25.2864 8.45869 23.282C8.45869 21.2715 8.83677 19.5612 9.59294 18.1508C10.3491 16.7405 11.3753 15.6663 12.6716 14.9281C13.9679 14.184 15.4262 13.8119 17.0466 13.8119C18.1148 13.8119 19.105 13.9619 20.0172 14.262C20.9354 14.5621 21.7486 15.0002 22.4568 15.5763C23.1649 16.1464 23.741 16.8456 24.1851 17.6737C24.6352 18.5019 24.9233 19.4501 25.0493 20.5184ZM31.8053 23.426C30.8991 23.426 30.0919 23.285 29.3838 23.0029C28.6816 22.7208 28.1235 22.3308 27.7094 21.8327C27.2953 21.3285 27.0793 20.7434 27.0613 20.0773H29.8879C29.9179 20.4133 30.1129 20.6744 30.473 20.8604C30.8391 21.0465 31.2832 21.1395 31.8053 21.1395C32.3454 21.1395 32.8045 21.0345 33.1826 20.8244C33.5607 20.6084 33.7497 20.3083 33.7497 19.9242C33.7497 19.5642 33.5577 19.2671 33.1736 19.033C32.7955 18.793 32.2704 18.673 31.5983 18.673H30.329V16.6295H31.5983C32.1564 16.6295 32.6065 16.5185 32.9486 16.2964C33.2906 16.0684 33.4617 15.7773 33.4617 15.4232C33.4617 15.0752 33.3117 14.7961 33.0116 14.5861C32.7175 14.37 32.3274 14.262 31.8413 14.262C31.3312 14.262 30.8961 14.364 30.536 14.5681C30.176 14.7721 29.9869 15.0422 29.9689 15.3782H27.3133C27.3253 14.7241 27.5324 14.151 27.9345 13.6589C28.3426 13.1607 28.8887 12.7737 29.5728 12.4976C30.257 12.2215 31.0221 12.0835 31.8683 12.0835C32.7265 12.0835 33.4767 12.2245 34.1188 12.5066C34.761 12.7887 35.2591 13.1697 35.6132 13.6499C35.9732 14.13 36.1533 14.6641 36.1533 15.2522C36.1533 15.9003 35.9282 16.4195 35.4781 16.8096C35.034 17.1996 34.4969 17.4367 33.8668 17.5207V17.6107C34.737 17.6947 35.4151 17.9588 35.9012 18.4029C36.3873 18.847 36.6304 19.4171 36.6304 20.1133C36.6304 20.7614 36.4203 21.3345 36.0002 21.8327C35.5862 22.3308 35.016 22.7208 34.2899 23.0029C33.5637 23.285 32.7355 23.426 31.8053 23.426Z" fill="black"/>
</svg>
